<svg width="484" height="332" viewBox="0 0 484 332" fill="none" xmlns="http://www.w3.org/2000/svg">
<path d="M118.253 141.465C106.647 148.911 92.1935 153.291 76.6454 153.291C33.067 153.291 0 120.224 0 76.6454C0 33.067 33.067 0 76.6454 0C92.1935 0 106.647 4.37974 118.253 11.8253V27.1544C107.523 17.9569 92.8504 12.4823 76.6454 12.4823C40.5126 12.4823 13.3582 40.5126 13.3582 76.6454C13.3582 112.778 40.5126 140.809 76.6454 140.809C92.8504 140.809 107.523 135.334 118.253 126.355V141.465Z" fill="white"/>
<path d="M176.358 151.101H164.094V0H176.358V151.101Z" fill="white"/>
<path d="M215.337 103.8C217.308 125.698 234.17 141.684 256.507 141.684C271.836 141.684 286.946 134.02 295.486 126.793V140.808C286.727 146.94 272.712 153.291 255.85 153.291C225.63 153.291 202.417 129.859 202.417 98.3249C202.417 66.7907 225.192 43.5781 255.193 43.5781C285.194 43.5781 306.874 66.5718 306.874 95.916C306.874 98.7628 306.655 102.048 306.217 103.8H215.337ZM215.118 93.2881H294.61C294.391 70.0755 276.873 54.7465 255.193 54.7465C233.513 54.7465 216.432 71.6084 215.118 93.2881Z" fill="white"/>
<path d="M332.933 51.4617C340.816 47.0819 350.89 43.5781 362.934 43.5781C384.395 43.5781 401.695 54.7465 401.695 82.1198V151.101H389.213V137.743C383.519 146.94 372.351 153.291 359.211 153.291C336.437 153.291 321.327 137.523 321.327 117.815C321.327 98.1059 337.751 82.5578 359.43 82.5578C372.351 82.5578 383.957 89.7844 389.213 97.4489V82.1198C389.213 62.849 375.416 55.1844 362.058 55.1844C351.328 55.1844 341.692 58.6882 332.933 64.3819V51.4617ZM361.401 142.998C376.511 142.998 389.213 131.83 389.213 117.815C389.213 103.8 376.073 92.8502 361.401 92.8502C346.729 92.8502 334.028 104.237 334.028 117.815C334.028 131.392 346.729 142.998 361.401 142.998Z" fill="white"/>
<path d="M445.93 61.5351C450.747 50.8047 460.164 43.5781 474.179 43.5781C477.464 43.5781 480.529 44.0161 483.595 44.6731V58.0313C480.31 56.7173 475.931 55.8414 472.208 55.8414C454.251 55.8414 446.367 68.7616 445.93 87.3755V151.101H433.447V45.768H445.93V61.5351Z" fill="white"/>
<path d="M56.5377 272.602L46.6833 329.539H21.7188L47.9972 180.627H128.146L123.986 204.497H68.5819L60.9174 248.732H111.941L107.562 272.602H56.5377Z" fill="white"/>
<path d="M149.169 329.538H125.08L151.796 178.438H175.885L149.169 329.538Z" fill="white"/>
<path d="M242.24 219.644C270.489 219.644 290.417 240.009 290.417 268.259C290.417 302.64 261.072 331.984 227.567 331.984C199.318 331.984 179.609 311.399 179.609 282.931C179.609 248.55 208.735 219.644 242.24 219.644ZM229.757 308.333C248.371 308.333 265.452 290.595 265.452 270.23C265.452 255.119 255.817 243.075 240.269 243.075C221.655 243.075 204.355 260.594 204.355 280.741C204.355 296.07 213.99 308.333 229.757 308.333Z" fill="white"/>
<path d="M331.585 221.834L338.592 300.012L371.221 235.849L368.593 221.834H392.682L407.135 300.012L441.516 221.834H467.794L416.99 329.576H391.806L379.324 263.66L345.381 329.576H319.978L307.496 221.834H331.585Z" fill="white"/>
</svg>
