<svg width="213" height="223" viewBox="0 0 213 223" fill="none" xmlns="http://www.w3.org/2000/svg">
<path fill-rule="evenodd" clip-rule="evenodd" d="M111.5 223C134.119 223 155.144 216.629 172.029 205.797V183.816C156.419 196.877 135.074 204.841 111.5 204.841C58.9357 204.841 19.4329 164.064 19.4329 111.5C19.4329 58.9357 58.9357 18.1586 111.5 18.1586C135.074 18.1586 156.419 26.1229 172.029 39.5029V17.2029C155.144 6.37143 134.119 0 111.5 0C48.1043 0 0 48.1043 0 111.5C0 174.896 48.1043 223 111.5 223ZM172.027 170.854L212.38 111.652L172.027 52.4512L131.675 111.652L172.027 170.854Z" fill="#DBFF00"/>
</svg>
