<svg width="100" height="131" viewBox="0 0 100 131" fill="none" xmlns="http://www.w3.org/2000/svg">
<path d="M2.39805 3.06392L24.8469 111.668C24.8701 111.818 25.0731 111.869 25.1579 111.753L49.5981 83.8454C49.5981 83.8454 49.7539 83.7905 49.7933 83.846L81.7218 128.86C81.7218 128.86 81.9009 128.955 81.9749 128.903L95.1347 119.568C95.1347 119.568 95.2303 119.389 95.1778 119.315L63.2492 74.3016C63.2492 74.3016 63.226 74.1512 63.3132 74.1172L97.7311 60.2762C97.8869 60.2213 97.8875 60.0261 97.7532 59.9545L2.67568 2.86699C2.52826 2.77681 2.36167 2.89497 2.39805 3.06392Z" fill="white" stroke="#232428" stroke-width="4" stroke-miterlimit="10"/>
</svg>
