<svg width="215" height="260" viewBox="0 0 215 260" fill="none" xmlns="http://www.w3.org/2000/svg">
<path fill-rule="evenodd" clip-rule="evenodd" d="M1 0H0V1V61H2V2H61V0H1ZM170.606 83.8373V45.3937C170.606 44.2891 169.711 43.3937 168.606 43.3937H127.197C127.197 32.1306 118.066 23 106.803 23C95.54 23 86.4095 32.1306 86.4095 43.3937H45C43.8954 43.3937 43 44.2891 43 45.3937V82.8373C43 83.3896 43.4483 83.8348 44 83.8614C54.7987 84.3828 63.3937 93.3032 63.3937 104.231C63.3937 115.159 54.7987 124.079 44 124.601C43.4483 124.627 43 125.072 43 125.625V169C43 170.105 43.8954 171 45 171H127.033L141.847 242.668C141.87 242.818 142.073 242.869 142.158 242.753L166.598 214.845C166.598 214.845 166.754 214.79 166.793 214.846L198.722 259.86C198.722 259.86 198.901 259.955 198.975 259.903L212.135 250.568C212.135 250.568 212.23 250.389 212.178 250.315L180.249 205.302C180.249 205.302 180.226 205.151 180.313 205.117L214.731 191.276C214.887 191.221 214.888 191.026 214.753 190.954L170.606 164.447V124.625C181.869 124.625 191 115.494 191 104.231C191 92.9679 181.869 83.8373 170.606 83.8373ZM213 0V1V61H211V2L152 2V0H212H213ZM0 213V214H1H61V212H2L2 153H0V213Z" fill="#6EFF00"/>
</svg>
