<svg width="1446" height="1240" viewBox="0 0 1446 1240" fill="none" xmlns="http://www.w3.org/2000/svg">
<path d="M971.168 365.424C970.857 364.761 971.341 364 972.073 364L985.5 364L998.927 364C999.659 364 1000.14 364.761 999.832 365.424L986.405 394.068C986.046 394.836 984.954 394.836 984.595 394.068L971.168 365.424Z" fill="#6EFF00"/>
<path d="M87.4244 29.3323C86.7613 29.6431 86 29.1592 86 28.4268L86 15L86 1.57315C86 0.840793 86.7613 0.356857 87.4244 0.667696L116.068 14.0945C116.836 14.4543 116.836 15.5457 116.068 15.9055L87.4244 29.3323Z" fill="#DBFF00"/>
<path d="M0 15H635.5C674.16 15 705.5 46.3401 705.5 85V505C705.5 543.66 674.16 575 635.5 575H306V1205H705.5" stroke="#DBFF00" stroke-width="2"/>
<path d="M1445.5 225H1055.5C1016.84 225 985.5 256.34 985.5 295V505C985.5 543.66 1016.84 575 1055.5 575H1146V1205H727" stroke="#6EFF00" stroke-width="2"/>
<rect x="588" y="1175" width="276" height="65" rx="32.5" fill="#6EFF00"/>
<rect x="588" y="1175" width="276" height="65" rx="32.5" fill="url(#paint0_linear_75_133)"/>
<path d="M642.081 1201.08H644.247V1209.27C644.247 1212.33 642.385 1214.21 639.44 1214.21C636.495 1214.21 634.633 1212.33 634.633 1209.27V1201.08H636.799V1209.42C636.799 1211.02 637.844 1212.1 639.459 1212.1C641.055 1212.1 642.081 1211.02 642.081 1209.42V1201.08ZM648.871 1204.65V1205.98C649.365 1205.07 650.239 1204.46 651.493 1204.46C653.564 1204.46 654.894 1205.98 654.894 1208.07V1214H652.804V1208.6C652.804 1207.35 652.063 1206.49 650.828 1206.49C649.65 1206.49 648.909 1207.29 648.871 1208.49V1214H646.781V1204.65H648.871ZM659.299 1200.89V1214H657.209V1200.89H659.299ZM661.129 1209.33C661.129 1206.57 663.238 1204.46 665.993 1204.46C668.729 1204.46 670.857 1206.57 670.857 1209.33C670.857 1212.06 668.729 1214.21 665.993 1214.21C663.238 1214.21 661.129 1212.06 661.129 1209.33ZM663.238 1209.33C663.238 1210.88 664.435 1212.16 665.993 1212.16C667.57 1212.16 668.729 1210.88 668.729 1209.33C668.729 1207.77 667.57 1206.49 665.993 1206.49C664.435 1206.49 663.238 1207.77 663.238 1209.33ZM679.258 1211.43V1213.66C678.688 1214 677.757 1214.21 677.016 1214.21C674.109 1214.21 672.095 1212.06 672.095 1209.33C672.095 1206.57 674.109 1204.46 677.016 1204.46C677.757 1204.46 678.688 1204.65 679.258 1204.97V1207.22C678.726 1206.82 677.947 1206.49 677.016 1206.49C675.42 1206.49 674.223 1207.77 674.223 1209.33C674.223 1210.88 675.42 1212.16 677.016 1212.16C677.928 1212.16 678.726 1211.85 679.258 1211.43ZM681.256 1214V1200.89H683.346V1208.62L686.5 1204.65H688.951L685.987 1208.41L689.008 1214H686.576L684.448 1209.88L683.346 1211.26V1214H681.256ZM702.101 1214H694.957V1201.08H702.101V1203.15H697.123V1206.46H701.721V1208.53H697.123V1211.93H702.101V1214ZM707.737 1210.88L705.78 1214H703.329L706.483 1209.33L703.329 1204.65H705.78L707.737 1207.75L709.713 1204.65H712.164L709.029 1209.33L712.164 1214H709.713L707.737 1210.88ZM715.575 1204.65V1206.29C716.221 1205.11 717.361 1204.46 718.767 1204.46C721.408 1204.46 723.308 1206.57 723.308 1209.33C723.308 1212.06 721.408 1214.21 718.767 1214.21C717.361 1214.21 716.221 1213.54 715.575 1212.48V1217.9H713.485V1204.65H715.575ZM715.575 1209.33C715.575 1210.86 716.753 1212.16 718.368 1212.16C719.964 1212.16 721.142 1210.86 721.142 1209.33C721.142 1207.77 719.964 1206.51 718.368 1206.51C716.753 1206.51 715.575 1207.77 715.575 1209.33ZM733.573 1210.03H726.676C726.885 1211.38 728.006 1212.31 729.526 1212.31C730.761 1212.31 731.977 1211.85 732.794 1211.28V1213.35C731.996 1213.81 730.78 1214.21 729.374 1214.21C726.619 1214.21 724.567 1212.19 724.567 1209.33C724.567 1206.57 726.562 1204.46 729.26 1204.46C731.939 1204.46 733.706 1206.49 733.706 1208.96C733.706 1209.33 733.649 1209.76 733.573 1210.03ZM729.241 1206.21C727.835 1206.21 726.79 1207.2 726.657 1208.41H731.692C731.654 1207.1 730.609 1206.21 729.241 1206.21ZM737.507 1204.65V1205.79C737.944 1205.01 738.704 1204.46 739.806 1204.46C740.053 1204.46 740.357 1204.48 740.585 1204.52V1206.74C740.243 1206.59 739.806 1206.49 739.331 1206.49C738.191 1206.49 737.545 1207.29 737.507 1208.49V1214H735.417V1204.65H737.507ZM744.89 1214H742.8V1206.44H741.223V1204.65H742.914V1202.47L744.89 1202.01V1204.65H746.581V1206.44H744.89V1214ZM752.551 1214V1201.08H754.717V1214H752.551ZM759.55 1204.65V1205.98C760.044 1205.07 760.918 1204.46 762.172 1204.46C764.243 1204.46 765.573 1205.98 765.573 1208.07V1214H763.483V1208.6C763.483 1207.35 762.742 1206.49 761.507 1206.49C760.329 1206.49 759.588 1207.29 759.55 1208.49V1214H757.46V1204.65H759.55ZM772.923 1204.84V1206.95C772.315 1206.55 771.536 1206.29 770.814 1206.29C770.016 1206.29 769.598 1206.68 769.598 1207.2C769.598 1207.6 769.845 1207.81 770.301 1208.09L771.802 1208.98C772.961 1209.69 773.36 1210.54 773.36 1211.45C773.36 1213.07 772.125 1214.21 770.016 1214.21C769.123 1214.21 768.211 1213.96 767.584 1213.68V1211.53C768.059 1211.95 769.047 1212.4 769.902 1212.4C770.738 1212.4 771.194 1211.99 771.194 1211.43C771.194 1211.05 770.985 1210.75 770.396 1210.41L768.8 1209.46C767.831 1208.89 767.451 1208.05 767.451 1207.14C767.451 1205.58 768.629 1204.46 770.757 1204.46C771.536 1204.46 772.334 1204.63 772.923 1204.84ZM777.307 1204.65V1214H775.217V1204.65H777.307ZM774.97 1201.8C774.97 1201.1 775.521 1200.51 776.262 1200.51C777.003 1200.51 777.535 1201.1 777.535 1201.8C777.535 1202.52 777.003 1203.09 776.262 1203.09C775.521 1203.09 774.97 1202.52 774.97 1201.8ZM786.851 1204.65H788.941V1213.09C788.941 1216.32 786.984 1218.09 783.906 1218.09C782.538 1218.09 781.322 1217.69 780.695 1217.33V1215.14C781.455 1215.67 782.728 1216.13 783.906 1216.13C785.616 1216.13 786.851 1215.03 786.851 1213.33V1212.25C786.186 1213.24 785.065 1213.92 783.621 1213.92C781.037 1213.92 779.156 1211.89 779.156 1209.21C779.156 1206.53 781.037 1204.46 783.602 1204.46C785.065 1204.46 786.186 1205.15 786.851 1206.17V1204.65ZM786.737 1209.19C786.737 1207.69 785.597 1206.51 784.058 1206.51C782.519 1206.51 781.379 1207.69 781.379 1209.19C781.379 1210.71 782.519 1211.89 784.058 1211.89C785.597 1211.89 786.737 1210.71 786.737 1209.19ZM793.468 1200.89V1205.98C793.981 1205.07 794.836 1204.46 796.09 1204.46C798.161 1204.46 799.491 1205.98 799.491 1208.07V1214H797.401V1208.6C797.401 1207.35 796.66 1206.49 795.444 1206.49C794.247 1206.49 793.506 1207.29 793.468 1208.49V1214H791.378V1200.89H793.468ZM804.507 1214H802.417V1206.44H800.84V1204.65H802.531V1202.47L804.507 1202.01V1204.65H806.198V1206.44H804.507V1214ZM812.723 1204.84V1206.95C812.115 1206.55 811.336 1206.29 810.614 1206.29C809.816 1206.29 809.398 1206.68 809.398 1207.2C809.398 1207.6 809.645 1207.81 810.101 1208.09L811.602 1208.98C812.761 1209.69 813.16 1210.54 813.16 1211.45C813.16 1213.07 811.925 1214.21 809.816 1214.21C808.923 1214.21 808.011 1213.96 807.384 1213.68V1211.53C807.859 1211.95 808.847 1212.4 809.702 1212.4C810.538 1212.4 810.994 1211.99 810.994 1211.43C810.994 1211.05 810.785 1210.75 810.196 1210.41L808.6 1209.46C807.631 1208.89 807.251 1208.05 807.251 1207.14C807.251 1205.58 808.429 1204.46 810.557 1204.46C811.336 1204.46 812.134 1204.63 812.723 1204.84ZM817.03 1209.72H815.548L815.092 1201.08H817.486L817.03 1209.72ZM814.807 1212.71C814.807 1211.85 815.434 1211.21 816.289 1211.21C817.144 1211.21 817.79 1211.85 817.79 1212.71C817.79 1213.56 817.144 1214.19 816.289 1214.19C815.434 1214.19 814.807 1213.56 814.807 1212.71Z" fill="black"/>
<defs>
<linearGradient id="paint0_linear_75_133" x1="588" y1="1207.5" x2="864" y2="1207.5" gradientUnits="userSpaceOnUse">
<stop stop-color="#DBFF00"/>
<stop offset="1" stop-color="#6EFF00"/>
</linearGradient>
</defs>
</svg>
