<svg width="1396" height="1249" viewBox="0 0 1396 1249" fill="none" xmlns="http://www.w3.org/2000/svg">
<path fill-rule="evenodd" clip-rule="evenodd" d="M47.6214 34.94C47.8501 35.2783 47.8501 35.7218 47.6214 36.0601L25 69.5209V618C25 656.108 55.8924 687 94 687H614.001C641.019 687 665.695 702.334 677.66 726.558L800.397 975.057L799.5 975.5L800.397 975.057L810.338 995.198L821.456 989.709C822.113 989.385 822.884 989.854 822.899 990.586L823.533 1021.93L915.638 1208.54C927.263 1232.09 951.249 1247 977.512 1247H1396V1249H977.512C950.487 1249 925.806 1233.66 913.845 1209.42L821.787 1022.91L797.196 1003.27C796.623 1002.82 796.72 1001.92 797.377 1001.6L808.544 996.084L798.603 975.943L675.867 727.444C664.239 703.902 640.258 689 614.001 689H94C54.7878 689 23 657.212 23 618V69.5209L0.378642 36.0601C0.149899 35.7218 0.149898 35.2783 0.378642 34.94L23.1716 1.22544C23.5681 0.638871 24.4319 0.638867 24.8284 1.22544L47.6214 34.94Z" fill="#6EFF00"/>
</svg>
